<svg xmlns="http://www.w3.org/2000/svg" xmlns:xlink="http://www.w3.org/1999/xlink" width="68" height="83" fill="none"><g filter="url(#a)"><path fill="#224E94" d="M12.229 16.437a3.155 3.155 0 0 1 3.155-3.155h21.383c1.8 0 3.527.718 4.796 1.995l11.743 11.818a6.76 6.76 0 0 1 1.965 4.765v35.055a3.155 3.155 0 0 1-3.155 3.155H15.384a3.155 3.155 0 0 1-3.155-3.155z"/></g><g filter="url(#b)"><path fill="#A026FF" fill-opacity=".25" d="M11.328 15.084a3.155 3.155 0 0 1 3.154-3.154h22.534a6.76 6.76 0 0 1 4.79 1.99l12.397 12.448a6.76 6.76 0 0 1 1.97 4.77v36.679a3.155 3.155 0 0 1-3.155 3.155H14.482a3.155 3.155 0 0 1-3.154-3.155z"/></g><path fill="url(#c)" d="M9.75 12.155A3.155 3.155 0 0 1 12.905 9h24.541a6.76 6.76 0 0 1 4.787 1.986l13.543 13.58a6.76 6.76 0 0 1 1.974 4.774v39.604a3.155 3.155 0 0 1-3.155 3.154h-41.69a3.155 3.155 0 0 1-3.155-3.154z"/><path fill="url(#d)" d="M9.75 12.155A3.155 3.155 0 0 1 12.905 9h24.541a6.76 6.76 0 0 1 4.787 1.986l13.543 13.58a6.76 6.76 0 0 1 1.974 4.774v39.604a3.155 3.155 0 0 1-3.155 3.154h-41.69a3.155 3.155 0 0 1-3.155-3.154z"/><mask id="f" width="49" height="65" x="9" y="8" maskUnits="userSpaceOnUse" style="mask-type:alpha"><path fill="url(#e)" d="M9.75 12.155A3.155 3.155 0 0 1 12.905 9h24.541a6.76 6.76 0 0 1 4.787 1.986l13.543 13.58a6.76 6.76 0 0 1 1.974 4.774v39.604a3.155 3.155 0 0 1-3.155 3.154h-41.69a3.155 3.155 0 0 1-3.155-3.154z"/></mask><g mask="url(#f)"><g filter="url(#g)"><path fill="#000" fill-opacity=".5" d="m40.171 26.545 3.211-16.499 13.646 13.2z"/></g><path fill="url(#h)" stroke="url(#i)" stroke-width=".25" d="m40.18 8.01-.214-.211v15.398a3.28 3.28 0 0 0 3.28 3.28h15.578l-.215-.214z"/><path fill="url(#j)" fill-opacity=".01" d="M-6.324.348h80.268v80.483H-6.324z"/><path fill="url(#k)" fill-opacity=".1" d="M-6.324.348h80.268v80.483H-6.324z" style="mix-blend-mode:soft-light"/></g><g filter="url(#l)"><path fill="#fff" fill-opacity=".01" d="M9.75 12.155A3.155 3.155 0 0 1 12.905 9h24.541a6.76 6.76 0 0 1 4.787 1.986l13.543 13.58a6.76 6.76 0 0 1 1.974 4.774v39.604a3.155 3.155 0 0 1-3.155 3.154h-41.69a3.155 3.155 0 0 1-3.155-3.154z" style="mix-blend-mode:darken"/></g><path stroke="#000" stroke-width=".25" d="M12.905 8.875a3.28 3.28 0 0 0-3.28 3.28v56.789a3.28 3.28 0 0 0 3.28 3.28h41.69a3.28 3.28 0 0 0 3.28-3.28V29.34a6.9 6.9 0 0 0-2.01-4.862L42.32 10.898a6.9 6.9 0 0 0-4.875-2.023z" style="mix-blend-mode:overlay"/><rect width="36" height="36" x="30.25" y="44.549" fill="#070D1B" rx="18"/><path fill="#fff" d="M54.538 61.963a.94.94 0 0 1-1.328 0l-4.023-4.023v11.484a.937.937 0 1 1-1.874 0V57.94l-4.025 4.023a.94.94 0 1 1-1.328-1.328l5.625-5.625a.937.937 0 0 1 1.328 0l5.625 5.625a.937.937 0 0 1 0 1.328"/><defs><radialGradient id="c" cx="0" cy="0" r="1" gradientTransform="rotate(126.772 25.957 18.989)scale(76.9642 58.6605)" gradientUnits="userSpaceOnUse"><stop stop-color="#EFEFEF"/><stop offset="1" stop-color="#FDFDFD"/></radialGradient><radialGradient id="d" cx="0" cy="0" r="1" gradientTransform="matrix(34.47886 -45.07038 34.35658 26.2828 7.271 75.93)" gradientUnits="userSpaceOnUse"><stop stop-color="#fff"/><stop offset="1" stop-color="#F9FBFF"/></radialGradient><radialGradient id="e" cx="0" cy="0" r="1" gradientTransform="rotate(126.772 25.957 18.989)scale(76.9642 58.6605)" gradientUnits="userSpaceOnUse"><stop stop-color="#EFEFEF"/><stop offset="1" stop-color="#FDFDFD"/></radialGradient><radialGradient id="h" cx="0" cy="0" r="1" gradientTransform="matrix(14.15804 -14.77666 46.04192 44.11438 40.172 26.577)" gradientUnits="userSpaceOnUse"><stop stop-color="#fff"/><stop offset=".5" stop-color="#F9FBFF"/><stop offset=".631" stop-color="#fff"/></radialGradient><radialGradient id="i" cx="0" cy="0" r="1" gradientTransform="matrix(13.5212 -14.87317 15.04986 13.68184 37.243 29.282)" gradientUnits="userSpaceOnUse"><stop stop-opacity=".15"/><stop offset="1" stop-opacity="0"/></radialGradient><filter id="a" width="52.056" height="65.803" x="7.722" y="8.775" color-interpolation-filters="sRGB" filterUnits="userSpaceOnUse"><feFlood flood-opacity="0" result="BackgroundImageFix"/><feBlend in="SourceGraphic" in2="BackgroundImageFix" result="shape"/><feGaussianBlur result="effect1_foregroundBlur_171_3567" stdDeviation="2.254"/></filter><filter id="b" width="67.38" height="81.578" x=".06" y=".662" color-interpolation-filters="sRGB" filterUnits="userSpaceOnUse"><feFlood flood-opacity="0" result="BackgroundImageFix"/><feBlend in="SourceGraphic" in2="BackgroundImageFix" result="shape"/><feGaussianBlur result="effect1_foregroundBlur_171_3567" stdDeviation="5.634"/></filter><filter id="g" width="34.884" height="34.527" x="31.157" y="1.032" color-interpolation-filters="sRGB" filterUnits="userSpaceOnUse"><feFlood flood-opacity="0" result="BackgroundImageFix"/><feBlend in="SourceGraphic" in2="BackgroundImageFix" result="shape"/><feGaussianBlur result="effect1_foregroundBlur_171_3567" stdDeviation="4.507"/></filter><filter id="l" width="48.5" height="64.275" x="9.5" y="8.299" color-interpolation-filters="sRGB" filterUnits="userSpaceOnUse"><feFlood flood-opacity="0" result="BackgroundImageFix"/><feBlend in="SourceGraphic" in2="BackgroundImageFix" result="shape"/><feColorMatrix in="SourceAlpha" result="hardAlpha" values="0 0 0 0 0 0 0 0 0 0 0 0 0 0 0 0 0 0 127 0"/><feOffset dy=".225"/><feGaussianBlur stdDeviation=".225"/><feComposite in2="hardAlpha" k2="-1" k3="1" operator="arithmetic"/><feColorMatrix values="0 0 0 0 1 0 0 0 0 1 0 0 0 0 1 0 0 0 1 0"/><feBlend in2="shape" result="effect1_innerShadow_171_3567"/><feColorMatrix in="SourceAlpha" result="hardAlpha" values="0 0 0 0 0 0 0 0 0 0 0 0 0 0 0 0 0 0 127 0"/><feOffset/><feGaussianBlur stdDeviation=".225"/><feComposite in2="hardAlpha" k2="-1" k3="1" operator="arithmetic"/><feColorMatrix values="0 0 0 0 0.768924 0 0 0 0 0.802984 0 0 0 0 0.858333 0 0 0 1 0"/><feBlend in2="effect1_innerShadow_171_3567" result="effect2_innerShadow_171_3567"/><feColorMatrix in="SourceAlpha" result="hardAlpha" values="0 0 0 0 0 0 0 0 0 0 0 0 0 0 0 0 0 0 127 0"/><feOffset dy="-.676"/><feGaussianBlur stdDeviation=".225"/><feComposite in2="hardAlpha" k2="-1" k3="1" operator="arithmetic"/><feColorMatrix values="0 0 0 0 0.86566 0 0 0 0 0.880943 0 0 0 0 0.891667 0 0 0 1 0"/><feBlend in2="effect2_innerShadow_171_3567" result="effect3_innerShadow_171_3567"/></filter><pattern id="j" width="1.404" height="1.4" patternContentUnits="objectBoundingBox"><use xlink:href="#image0_171_3567" transform="scale(.0028)"/></pattern><pattern id="k" width="1.404" height="1.4" patternContentUnits="objectBoundingBox"><use xlink:href="#image0_171_3567" transform="scale(.0028)"/></pattern></defs></svg>